<?xml version="1.0" encoding="utf-8"?>
<!-- Generator: Adobe Illustrator 18.0.0, SVG Export Plug-In . SVG Version: 6.00 Build 0)  -->
<!DOCTYPE svg PUBLIC "-//W3C//DTD SVG 1.1//EN" "http://www.w3.org/Graphics/SVG/1.1/DTD/svg11.dtd">
<svg version="1.1" id="Layer_1" xmlns="http://www.w3.org/2000/svg" xmlns:xlink="http://www.w3.org/1999/xlink" x="0px" y="0px"
	 width="225px" height="200px" viewBox="0 0 225 200" enable-background="new 0 0 225 200" xml:space="preserve">
<g>
	<g>
		<path fill="#242359" d="M209.1,160.5H15.9c-8.7,0-15.9-7.1-15.9-15.8V15.8C0,7.1,7.1,0,15.9,0h193.3c8.7,0,15.9,7.1,15.9,15.8
			v128.8C225,153.4,217.9,160.5,209.1,160.5z M15.9,2C8.2,2,2,8.2,2,15.8v128.8c0,7.6,6.2,13.9,13.9,13.9h193.3
			c7.7,0,13.9-6.2,13.9-13.9V15.8C223,8.2,216.8,2,209.1,2H15.9z"/>
	</g>
	<g>
		<path fill="#242359" d="M224,140.2H1c-0.5,0-1-0.4-1-1c0-0.5,0.4-1,1-1h223c0.5,0,1,0.4,1,1C225,139.8,224.6,140.2,224,140.2z"/>
	</g>
	<g>
		<path fill="#242359" d="M112.5,157.3c-3.6,0-6.6-2.9-6.6-6.6s3-6.6,6.6-6.6c3.6,0,6.6,2.9,6.6,6.6S116.1,157.3,112.5,157.3z
			 M112.5,146.2c-2.5,0-4.6,2.1-4.6,4.6c0,2.5,2.1,4.6,4.6,4.6c2.5,0,4.6-2.1,4.6-4.6C117.1,148.2,115,146.2,112.5,146.2z"/>
	</g>
	<g>
		<path fill="#242359" d="M161.3,200H64.9c-0.5,0-1-0.4-1-1v-10c0-0.5,0.4-1,1-1h11.6l5.8-29.1c0.1-0.5,0.6-0.9,1.2-0.8
			c0.5,0.1,0.9,0.6,0.8,1.2l-6,29.9c-0.1,0.5-0.5,0.8-1,0.8H65.9v8h94.3v-8h-11.4c-0.5,0-0.9-0.3-1-0.8l-6-29.9
			c-0.1-0.5,0.2-1.1,0.8-1.2c0.5-0.1,1.1,0.2,1.2,0.8l5.8,29.1h11.6c0.5,0,1,0.4,1,1v10C162.3,199.6,161.8,200,161.3,200z"/>
	</g>
	<g>
		<path fill="#242359" d="M148.9,190H77.3c-0.5,0-1-0.4-1-1c0-0.5,0.4-1,1-1h71.5c0.5,0,1,0.4,1,1C149.9,189.6,149.4,190,148.9,190z
			"/>
	</g>
	<g>
		<path fill="#242359" d="M211.6,122H15.3c-0.5,0-1-0.4-1-1V23.1c0-4.5,3.7-8.2,8.2-8.2h181.9c4.5,0,8.2,3.7,8.2,8.2V121
			C212.6,121.5,212.1,122,211.6,122z M16.3,120h194.3V23.1c0-3.4-2.8-6.2-6.2-6.2H22.5c-3.4,0-6.2,2.8-6.2,6.2V120z"/>
	</g>
	<g>
		<g>
			<g>
				<path fill="#242359" d="M81.7,88.5c-0.3,0-0.5-0.1-0.7-0.3L61,68.3c-0.4-0.4-0.4-1,0-1.4l20-20.7c0.4-0.4,1-0.4,1.4,0
					c0.4,0.4,0.4,1,0,1.4l-19.3,20l19.3,19.2c0.4,0.4,0.4,1,0,1.4C82.2,88.4,82,88.5,81.7,88.5z"/>
			</g>
			<g>
				<path fill="#242359" d="M143.3,88.5c-0.2,0-0.5-0.1-0.7-0.3c-0.4-0.4-0.4-1,0-1.4l19.3-20l-19.3-19.2c-0.4-0.4-0.4-1,0-1.4
					c0.4-0.4,1-0.4,1.4,0l20,19.9c0.4,0.4,0.4,1,0,1.4l-20,20.7C143.8,88.4,143.5,88.5,143.3,88.5z"/>
			</g>
			<g>
				<path fill="#242359" d="M96.9,95.3c-0.2,0-0.3,0-0.5-0.1c-0.5-0.3-0.6-0.9-0.4-1.3l29.6-52.6c0.3-0.5,0.9-0.6,1.3-0.4
					c0.5,0.3,0.6,0.9,0.4,1.3L97.8,94.8C97.6,95.1,97.3,95.3,96.9,95.3z"/>
			</g>
		</g>
	</g>
</g>
</svg>
